<?xml version="1.0" standalone="no"?>
<!DOCTYPE svg PUBLIC "-//W3C//DTD SVG 20010904//EN"
 "http://www.w3.org/TR/2001/REC-SVG-20010904/DTD/svg10.dtd">
<svg version="1.0" xmlns="http://www.w3.org/2000/svg"
 width="32.000000pt" height="32.000000pt" viewBox="0 0 32.000000 32.000000"
 preserveAspectRatio="xMidYMid meet">

<g transform="translate(0.000000,32.000000) scale(0.100000,-0.100000)"
fill="#000000" stroke="none">
<path d="M150 193 c0 -76 0 -76 -20 -58 -11 10 -23 15 -27 11 -6 -6 44 -55 57
-56 13 0 64 49 58 56 -5 4 -17 -1 -28 -11 -20 -18 -20 -18 -20 58 0 45 -4 77
-10 77 -6 0 -10 -32 -10 -77z"/>
<path d="M42 93 l3 -38 115 0 115 0 3 38 c2 21 -1 37 -7 37 -6 0 -11 -13 -11
-30 l0 -30 -100 0 -100 0 0 30 c0 17 -5 30 -11 30 -6 0 -9 -16 -7 -37z"/>
</g>
</svg>
